<svg xmlns="http://www.w3.org/2000/svg" viewBox="0 0 256 256" width="256" height="256" role="img" aria-label="ASEST - Icono de ingeniería civil"><title>ASEST - Icono de ingeniería civil</title><rect x="4" y="4" width="248" height="248" fill="#0A1C2E" stroke="#E75B12" stroke-width="8" rx="0" ry="0" /><line x1="34" y1="211" x2="213" y2="211" stroke="#FFFFFF" stroke-width="4" stroke-linecap="round" /><polygon points="231.0,211.0 211.0,221.75 211.0,200.25" fill="#FFFFFF" stroke="none" stroke-width="0" stroke-linejoin="round"/><line x1="34" y1="211" x2="34" y2="53" stroke="#FFFFFF" stroke-width="4" stroke-linecap="round" /><polygon points="34.0,35.0 44.75,55.0 23.25,55.0" fill="#FFFFFF" stroke="none" stroke-width="0" stroke-linejoin="round"/><path d="M39 188 L69 91 Q72 82 81 82 H139 Q149 82 155 96 L216 184" fill="none" stroke="#38BDF8" stroke-width="7" stroke-linecap="round" stroke-linejoin="round" /><line x1="128" y1="95" x2="128" y2="211" stroke="#FFFFFF" stroke-width="4.0" stroke-linecap="round" stroke-dasharray="5 6"/><circle cx="128" cy="82" r="6.5" fill="#E75B12" stroke="#FFFFFF" stroke-width="4.0"/><line x1="189" y1="187" x2="189" y2="146" stroke="#E75B12" stroke-width="5.5" stroke-linecap="round" /><polygon points="189.0,124.0 201.9,148.0 176.1,148.0" fill="#E75B12" stroke="none" stroke-width="0" stroke-linejoin="round"/><circle cx="189" cy="187" r="4.5" fill="#E75B12" stroke="none" stroke-width="0"/></svg>
